<?xml version="1.0" encoding="UTF-8"?>
<svg width="100px" height="100px" viewBox="0 0 100 100" version="1.1" xmlns="http://www.w3.org/2000/svg" xmlns:xlink="http://www.w3.org/1999/xlink">
    <title>编组</title>
    <defs>
        <rect id="path-1" x="0" y="0" width="100" height="100" rx="12"></rect>
    </defs>
    <g id="RP" stroke="none" stroke-width="1" fill="none" fill-rule="evenodd">
        <g id="20-|-Typography-–-Typeface复制-7" transform="translate(-415.000000, -563.000000)">
            <g id="编组" transform="translate(415.000000, 563.000000)">
                <mask id="mask-2" fill="white">
                    <use xlink:href="#path-1"></use>
                </mask>
                <use id="蒙版" fill="#FFE804" xlink:href="#path-1"></use>
                <g mask="url(#mask-2)">
                    <g transform="translate(0.000000, 29.166667)">
                        <g>
                            <path d="M99.4990733,62.1087069 C98.4658734,49.9370095 92.9459964,38.6824028 83.956895,30.4185185 C77.579226,24.5557045 69.8503485,20.5638431 61.5388197,18.737979 C61.9753707,18.3825243 62.4053603,17.9973024 62.8222272,17.5801247 C66.5237248,13.8758663 67.8381895,9.18535249 65.7577921,7.10340347 C63.8891088,5.23332646 59.9181569,6.10489091 56.4467453,8.98573753 C55.790169,3.84127475 53.2076068,0 50.1198176,0 C47.0320285,0 44.4494662,3.84127475 43.79289,8.98573753 C40.3214784,6.10489091 36.3505264,5.23332646 34.4818431,7.10340347 C32.4014457,9.18535249 33.7159104,13.8758663 37.4174081,17.5801247 C37.8390866,18.0021177 38.2738879,18.3917171 38.715688,18.7497983 C30.4247183,20.5813531 22.7155249,24.5679616 16.3518535,30.4185185 C7.36275208,38.6824028 1.84287515,49.9370095 0.809675267,62.1087069 L0,71.6460121 L12.5173784,71.6460121 L13.2378188,63.1654405 C14.0055012,54.1184177 18.1085558,45.7534126 24.7897983,39.6104373 C31.4710409,33.4683375 40.1473829,30.0853892 49.22047,30.0853892 L51.0882785,30.0853892 C60.1609282,30.0853892 68.8372702,33.4683375 75.5189502,39.6104373 C82.2006302,45.7534126 86.3032473,54.1184177 87.0709297,63.1654405 L87.7909327,71.6460121 L100.308749,71.6460121 L99.4990733,62.1087069 Z" id="Fill-7" fill="#000000"></path>
                        </g>
                        <g transform="translate(33.436745, 46.119636)">
                            <path d="M4.48842675,0 C2.0095344,0 0,3.57818574 0,7.99204025 C0,12.4058948 2.0095344,15.9840805 4.48842675,15.9840805 C6.9673191,15.9840805 8.9768535,12.4058948 8.9768535,7.99204025 C8.9768535,3.57818574 6.9673191,0 4.48842675,0" id="Fill-3" fill="#000000"></path>
                        </g>
                        <g transform="translate(57.895019, 46.119636)">
                            <path d="M4.48842675,0 C2.0095344,0 0,3.57818574 0,7.99204025 C0,12.4058948 2.0095344,15.9840805 4.48842675,15.9840805 C6.9673191,15.9840805 8.9768535,12.4058948 8.9768535,7.99204025 C8.9768535,3.57818574 6.9673191,0 4.48842675,0" id="Fill-5" fill="#000000"></path>
                        </g>
                    </g>
                </g>
            </g>
        </g>
    </g>
</svg>